<svg xmlns="http://www.w3.org/2000/svg" version="1.1" xmlns:xlink="http://www.w3.org/1999/xlink" xmlns:svgjs="http://svgjs.com/svgjs" width="1440" height="560" preserveAspectRatio="none" viewBox="0 0 1440 560"><g mask="url(&quot;#SvgjsMask1000&quot;)" fill="none"><rect width="1440" height="560" x="0" y="0" fill="#0e2a47"></rect><path d="M0,421.747C76.932,409.772,132.431,349.122,202.334,314.838C283.987,274.791,392.63,277.506,445.286,203.355C499.084,127.596,496.074,22.14,474.337,-68.199C453.571,-154.504,387.872,-218.678,327.975,-284.192C269.603,-348.037,211.219,-413.302,130.463,-444.317C45.723,-476.863,-47.147,-482.071,-135.74,-462.289C-228.243,-441.634,-314.768,-397.941,-380.975,-330.117C-449.644,-259.771,-516.465,-172.302,-514.76,-74.011C-513.093,22.113,-420.713,86.966,-372.3,170.024C-329.721,243.073,-317.357,337.467,-247.313,384.826C-176.837,432.477,-84.062,434.831,0,421.747" fill="#0b2239"></path><path d="M1440 977.6120000000001C1524.661 966.8299999999999 1614.821 989.65 1689.036 947.508 1764.865 904.45 1798.016 817.8720000000001 1847.618 746.153 1908.7939999999999 657.698 2011.087 584.959 2014.13 477.453 2017.228 368.022 1950.777 259.017 1863.271 193.23399999999998 1780.462 130.98200000000003 1666.347 152.60700000000003 1563.67 138.81799999999998 1478.045 127.31900000000002 1395.768 105.031 1310.511 119.00099999999998 1216.633 134.38400000000001 1126.618 165.255 1050.899 222.84199999999998 962.634 289.971 874.048 367.644 843.436 474.227 811.2 586.463 823.729 713.49 880.7 815.424 936.039 914.4390000000001 1037.622 985.004 1146.564 1016.595 1243.29 1044.644 1340.096 990.335 1440 977.6120000000001" fill="#113255"></path></g><defs><mask id="SvgjsMask1000"><rect width="1440" height="560" fill="#ffffff"></rect></mask></defs></svg>